<?xml version="1.0" standalone="no"?>
<!DOCTYPE svg PUBLIC "-//W3C//DTD SVG 20010904//EN"
 "http://www.w3.org/TR/2001/REC-SVG-20010904/DTD/svg10.dtd">
<svg version="1.0" xmlns="http://www.w3.org/2000/svg"
 width="2000.000000pt" height="2000.000000pt" viewBox="0 0 2000.000000 2000.000000"
 preserveAspectRatio="xMidYMid meet">

<g transform="translate(0.000000,2000.000000) scale(0.100000,-0.100000)"
fill="#000000" stroke="none">
<path d="M8380 19489 l-25 -11 40 -18 c22 -10 46 -19 53 -19 41 -3 358 -180
487 -273 23 -17 -9 -16 -106 2 -135 25 -714 130 -938 170 -95 17 -175 29 -178
26 -2 -2 28 -23 69 -47 104 -60 195 -129 259 -196 58 -61 85 -100 75 -111 -16
-15 -373 21 -656 67 -413 66 -400 65 -400 49 0 -23 72 -146 232 -398 184 -290
308 -495 308 -509 0 -16 -100 18 -160 54 -70 43 -173 144 -213 213 -33 54 -53
68 -44 30 2 -13 14 -69 26 -126 43 -207 142 -515 219 -684 40 -88 111 -197
161 -247 l41 -41 -28 0 c-44 0 -128 47 -172 97 -22 25 -40 50 -40 54 0 5 -4 9
-9 9 -11 0 -6 -42 15 -147 46 -220 311 -578 444 -599 38 -6 39 -7 47 -63 10
-73 8 -422 -3 -581 -14 -187 15 -348 102 -559 104 -252 304 -503 522 -656 39
-27 71 -53 72 -56 0 -4 -14 -12 -30 -19 -43 -18 -74 -59 -101 -134 -19 -52
-28 -66 -44 -66 -35 0 -278 -104 -360 -154 -147 -89 -276 -199 -347 -293 -57
-78 -104 -178 -154 -328 -43 -133 -67 -228 -246 -969 l-93 -388 -38 -20 c-105
-53 -277 -289 -277 -378 0 -10 -16 -28 -35 -40 -21 -13 -37 -32 -40 -48 -3
-15 -30 -103 -61 -197 -57 -178 -110 -297 -212 -481 -112 -200 -184 -414 -198
-586 -13 -169 29 -383 96 -488 67 -105 195 -187 272 -177 36 5 50 1 90 -25 32
-21 49 -40 53 -59 17 -77 276 -225 555 -319 69 -23 130 -49 135 -57 37 -57 93
-116 153 -162 65 -51 69 -57 60 -80 -18 -50 -38 -229 -38 -356 0 -384 131
-1229 295 -1890 117 -474 366 -1281 502 -1625 35 -88 43 -118 34 -130 -65 -91
-131 -225 -156 -316 -25 -92 -32 -343 -11 -424 20 -80 71 -189 124 -267 l40
-58 -63 -58 c-111 -100 -201 -236 -274 -410 -59 -143 -66 -173 -46 -204 16
-24 15 -26 -25 -80 -49 -64 -263 -281 -365 -370 -38 -33 -90 -69 -115 -80 -25
-11 -101 -61 -170 -112 -69 -51 -134 -97 -145 -101 -32 -12 -111 -103 -140
-160 -33 -64 -55 -164 -55 -248 0 -54 4 -70 33 -115 61 -95 166 -169 338 -241
278 -115 695 -172 954 -132 299 47 376 82 700 317 66 48 160 118 209 157 106
85 134 91 312 72 90 -10 128 -10 177 0 81 15 167 62 217 117 37 39 40 47 35
81 -13 74 -47 187 -67 223 -20 36 -20 40 -5 96 8 32 21 91 27 131 8 51 23 92
51 140 78 136 129 299 171 542 18 102 22 166 22 345 1 194 -2 233 -23 329 -29
140 -79 283 -141 405 l-48 96 9 80 c13 128 10 384 -6 541 -27 251 -80 487
-169 753 -25 74 -45 136 -43 137 1 1 56 -95 122 -214 291 -523 469 -825 626
-1059 124 -184 280 -386 366 -471 76 -75 88 -93 139 -204 31 -67 76 -172 101
-233 l44 -110 -26 -119 c-54 -243 -104 -378 -183 -495 -68 -101 -85 -133 -99
-190 -14 -56 -36 -452 -26 -477 3 -8 54 -32 115 -56 61 -23 112 -47 115 -54 2
-6 -5 -47 -16 -90 -42 -166 -35 -287 24 -405 29 -58 71 -109 90 -109 7 0 24
-16 38 -37 30 -42 35 -24 -61 -223 -171 -353 -184 -590 -43 -827 36 -61 58
-86 101 -114 96 -64 346 -154 555 -201 86 -20 127 -23 300 -22 170 1 222 5
345 27 80 14 183 37 230 50 47 14 103 28 125 32 82 14 139 63 219 187 53 83
75 177 88 368 8 113 16 170 25 181 47 55 81 271 54 337 -11 26 -9 33 13 67 82
120 86 370 10 721 -18 89 -34 172 -34 185 0 13 -4 31 -10 39 -5 8 -5 19 0 25
5 6 22 51 39 100 76 229 55 500 -60 744 -88 188 -240 371 -355 427 -33 15 -62
33 -66 39 -8 11 -63 235 -110 445 l-29 135 11 180 c31 482 -65 682 -472 983
l-137 101 -30 98 c-66 213 -106 361 -182 673 -114 467 -145 587 -191 749 l-41
144 18 46 c32 82 65 204 82 296 24 141 14 357 -25 505 l-29 115 56 51 c31 29
70 70 85 93 l29 41 86 0 c227 1 472 167 975 660 218 214 329 338 432 480 108
148 161 211 205 238 69 44 132 122 167 206 38 91 39 119 7 260 -58 254 -167
573 -345 1007 -366 888 -567 1267 -923 1739 -221 292 -403 478 -712 730 -104
85 -198 162 -209 171 -20 16 -19 17 14 94 l34 77 -29 86 c-52 162 -239 496
-303 540 -15 11 -58 30 -97 43 -61 21 -88 24 -217 24 -82 0 -148 3 -148 6 0
18 46 137 86 221 44 91 49 97 91 113 67 26 160 101 224 182 73 92 153 252 180
362 16 62 33 101 67 150 55 80 130 238 176 370 136 392 115 794 -55 1044 -23
33 -52 91 -65 129 -34 102 -109 237 -181 328 -40 51 -78 115 -106 177 -136
309 -347 558 -632 746 -99 66 -239 137 -267 137 -17 0 -16 -5 10 -42 46 -67
107 -184 150 -288 63 -150 63 -149 -5 -94 -243 198 -576 310 -1263 423 -102
17 -237 38 -300 46 -148 21 -476 29 -510 14z m476 -1683 c-93 -126 -202 -233
-486 -476 -22 -18 -22 -20 -5 -16 11 2 74 7 140 11 427 22 894 128 1288 291
72 30 157 70 190 89 32 19 61 35 65 35 4 0 8 -60 9 -133 7 -396 132 -695 331
-786 33 -16 52 -31 52 -42 0 -116 -87 -602 -117 -647 -22 -35 -8 -38 33 -7 45
34 104 126 179 275 73 147 123 216 222 311 104 99 178 149 221 149 32 0 30 -2
-33 -35 -156 -81 -317 -258 -265 -290 6 -3 10 1 10 11 0 9 30 46 68 83 252
247 493 254 558 15 33 -122 4 -306 -72 -457 -43 -85 -124 -195 -178 -243 -158
-139 -310 -144 -474 -17 -31 24 -60 51 -65 58 -15 28 -27 15 -13 -14 29 -55
113 -136 168 -161 29 -13 54 -25 56 -26 2 -1 -7 -30 -19 -65 -47 -139 -15
-444 66 -634 l38 -88 -24 -19 c-115 -90 -363 -216 -545 -278 -64 -21 -123 -45
-131 -52 -7 -8 -38 -83 -68 -167 -30 -84 -76 -193 -102 -242 l-47 -89 -47 0
c-50 0 -188 -39 -251 -71 -21 -11 -40 -19 -43 -19 -4 0 18 27 48 61 100 109
194 267 306 509 60 130 164 393 176 445 7 28 6 29 -7 10 -15 -20 -27 -46 -168
-360 -79 -174 -120 -254 -218 -420 -80 -134 -156 -249 -194 -293 -38 -44 -36
-59 5 -29 61 46 151 85 295 127 41 12 76 20 78 17 5 -4 -151 -234 -244 -360
-117 -158 -262 -318 -285 -315 -14 2 -27 23 -47 80 -35 97 -112 249 -222 443
-47 83 -102 183 -122 223 l-37 74 16 71 c18 79 53 164 85 204 28 36 26 27 -20
-71 -21 -47 -35 -86 -31 -86 5 0 27 20 49 44 69 75 101 156 104 263 l1 59 90
17 c239 46 540 218 779 446 128 122 188 196 269 328 70 116 78 151 12 62 -25
-35 -93 -116 -149 -179 -150 -168 -277 -277 -464 -400 -339 -222 -612 -273
-881 -164 -80 33 -269 161 -377 256 -246 217 -438 558 -498 885 -15 83 -15 95
0 140 39 120 56 372 36 540 -13 117 -70 357 -100 428 l-18 43 73 71 74 72 53
-7 c122 -14 245 -55 347 -114 19 -11 37 -17 40 -15 3 3 -22 32 -54 65 -63 64
-160 121 -239 141 l-49 12 24 19 c83 66 302 217 404 279 112 68 396 211 403
204 2 -2 -21 -37 -52 -79z m2239 -2391 c99 -26 126 -44 178 -120 57 -84 231
-428 225 -445 -5 -15 -46 47 -186 281 -100 168 -115 188 -149 202 -57 22 -197
55 -301 71 -51 7 -96 16 -99 20 -14 14 274 6 332 -9z m-2472 -521 c4 -4 -10
-20 -31 -36 -20 -16 -40 -36 -44 -43 -15 -26 -72 -192 -109 -320 -21 -71 -38
-116 -38 -100 -1 45 34 196 75 325 35 112 37 116 83 147 51 34 55 36 64 27z
m2077 -39 c0 -11 -169 -115 -267 -164 -56 -28 -135 -62 -175 -75 -50 -17 -74
-30 -77 -43 -20 -100 -188 -439 -208 -419 -2 2 12 36 32 75 42 84 61 134 110
294 25 82 40 117 51 117 42 0 275 88 394 148 74 38 136 69 138 70 1 1 2 0 2
-3z m-2416 -258 c-164 -89 -352 -233 -477 -368 -72 -77 -88 -100 -106 -157
-30 -92 -203 -523 -208 -518 -7 7 78 328 118 443 61 176 83 216 162 288 143
133 296 234 460 305 112 48 133 51 51 7z m3955 -717 c254 -304 497 -674 668
-1013 81 -162 275 -598 269 -604 -7 -7 -100 156 -221 387 -253 480 -503 886
-793 1285 -73 101 -85 121 -52 90 23 -22 81 -87 129 -145z m-4075 -12 c15 -57
-16 -674 -42 -838 l-7 -45 -18 27 c-17 25 -18 43 -8 295 13 312 29 525 41 559
12 30 26 31 34 2z m1181 -460 c31 -14 31 -16 0 -53 -14 -16 -22 -22 -19 -12 8
23 -13 47 -42 47 -15 0 -24 6 -24 15 0 18 48 20 85 3z m-56 -47 c11 -7 11 -12
-2 -32 -8 -13 -29 -67 -48 -119 -18 -52 -33 -96 -34 -98 -3 -4 -95 37 -95 43
0 20 143 215 158 215 4 0 13 -4 21 -9z m823 -240 c128 -33 278 -66 333 -75
115 -19 191 -40 188 -52 -1 -5 -11 -34 -22 -64 -11 -30 -27 -81 -36 -114 l-16
-58 -37 7 c-20 3 -87 24 -147 44 -133 46 -213 65 -365 85 -63 9 -139 21 -168
28 l-54 12 7 35 c3 20 15 75 26 124 17 71 24 87 39 87 11 0 124 -27 252 -59z
m-1072 -79 c-22 -32 -56 -73 -74 -91 l-33 -32 5 -91 c6 -102 -9 -115 -27 -25
-22 110 -23 107 69 205 47 50 89 90 93 91 5 1 -10 -25 -33 -57z m-753 -241
c178 -106 425 -171 539 -142 25 7 48 11 49 9 1 -2 10 -73 20 -158 20 -180 57
-402 75 -445 l13 -30 8 35 c5 22 2 72 -7 135 -27 178 -54 389 -54 425 0 33 4
38 63 71 73 42 134 64 237 83 249 47 485 23 1010 -104 309 -75 410 -93 535
-94 90 -1 105 2 151 26 56 29 64 28 64 -10 0 -14 6 -33 13 -41 7 -9 24 -41 37
-71 99 -220 384 -638 751 -1098 l98 -122 -24 -36 c-23 -34 -29 -57 -26 -95 1
-10 -16 -21 -53 -32 -30 -10 -81 -37 -113 -61 -66 -48 -157 -162 -174 -217
-10 -32 -17 -38 -68 -54 -162 -51 -303 -162 -366 -287 -19 -39 -35 -79 -35
-89 0 -15 -8 -19 -32 -19 -40 0 -187 -33 -248 -55 -24 -8 -54 -25 -66 -36
l-21 -20 -119 119 c-167 167 -238 201 -315 149 -36 -24 -51 -57 -25 -57 9 0
13 -6 10 -13 -2 -7 26 -47 63 -88 170 -188 244 -284 423 -555 132 -199 334
-531 424 -696 38 -70 52 -88 70 -88 32 0 75 22 82 43 3 9 14 17 24 17 11 0 56
12 102 26 67 21 91 35 128 71 l44 45 112 -59 c128 -66 128 -64 25 -138 -234
-169 -297 -203 -531 -283 -268 -92 -443 -119 -695 -108 -373 15 -856 122
-1434 316 l-224 75 -1 70 c-1 69 -2 70 -28 73 -21 3 -28 9 -28 26 0 12 3 25 6
28 3 4 45 -7 92 -23 124 -42 502 -152 669 -193 203 -51 412 -91 608 -116 94
-12 233 -31 310 -42 426 -61 752 -14 1065 154 77 41 174 107 167 114 -5 6
-115 -37 -208 -80 -124 -57 -263 -104 -382 -128 -160 -32 -474 -32 -623 0
-279 60 -420 136 -724 387 -201 166 -281 221 -268 186 3 -11 172 -167 295
-274 45 -39 81 -73 79 -74 -4 -5 -354 81 -543 133 -158 43 -514 152 -521 159
-2 2 -8 49 -12 104 -5 56 -13 109 -18 117 -7 13 -27 17 -88 18 -62 1 -90 6
-129 26 -68 33 -145 113 -179 183 -61 130 -72 342 -25 477 30 85 156 274 187
278 28 4 29 34 3 70 -72 103 -122 267 -124 407 -2 112 12 181 54 271 34 73 35
78 11 65 -24 -13 -76 -111 -98 -186 -25 -85 -23 -244 5 -350 11 -44 40 -119
63 -167 l43 -86 -62 -84 c-147 -195 -191 -371 -147 -586 41 -201 181 -357 339
-379 38 -5 51 -2 74 15 l29 21 6 -37 c7 -47 7 -101 0 -130 -7 -26 1 -28 -169
34 -154 57 -149 54 -130 90 19 36 19 68 1 83 -21 17 -39 -20 -34 -70 2 -21 2
-39 0 -39 -10 0 -223 93 -227 100 -2 4 31 10 74 13 64 4 141 26 141 41 0 2
-98 3 -217 2 -190 0 -231 2 -320 22 -116 25 -209 57 -333 113 -73 33 -81 35
-55 14 75 -63 281 -146 445 -179 14 -3 -17 -3 -69 -1 -225 11 -569 123 -803
262 -109 65 -124 84 -149 183 -18 71 -21 103 -16 195 6 124 23 194 72 308 65
152 218 366 339 477 33 30 91 86 129 124 38 37 70 66 71 65 2 -2 14 -24 26
-49 60 -121 128 -178 196 -165 37 6 47 25 14 25 -11 0 -44 25 -74 55 -45 45
-69 84 -135 220 -45 90 -81 172 -81 181 0 18 67 145 132 252 91 149 379 527
408 535 35 9 90 245 105 452 11 155 5 150 85 73 38 -37 100 -85 137 -107z
m-957 -293 c19 -13 35 -28 37 -34 5 -15 -41 -34 -105 -45 -67 -10 -143 -45
-205 -92 -46 -36 -67 -45 -67 -29 0 17 110 139 151 168 81 57 137 67 189 32z
m-826 -1328 c-23 -112 -63 -381 -70 -476 -8 -112 10 -199 68 -324 36 -78 37
-82 13 -60 -14 13 -39 51 -56 85 -45 93 -63 189 -63 355 0 127 3 157 27 243
25 90 86 252 92 245 2 -2 -3 -32 -11 -68z m656 -96 c0 -17 -101 -121 -150
-154 -68 -47 -178 -160 -213 -221 -57 -98 -71 -153 -71 -296 l-1 -132 -23 37
c-28 46 -59 148 -67 224 -6 51 -3 63 30 131 75 159 189 298 283 346 23 12 65
27 94 35 29 8 64 19 78 24 30 13 40 14 40 6z m4863 -40 c41 -14 125 -79 115
-89 -2 -2 -48 13 -103 31 -137 48 -203 45 -329 -14 -98 -46 -97 -33 0 34 94
65 202 78 317 38z m-403 -303 c0 -5 -16 -12 -35 -15 -151 -29 -337 -123 -439
-223 l-40 -38 20 34 c51 89 203 191 346 232 68 19 148 25 148 10z m-4751 -113
c-12 -29 -29 -89 -39 -133 -16 -68 -18 -74 -19 -39 -1 46 22 131 50 187 28 54
32 46 8 -15z m3509 -155 c102 -105 289 -349 277 -362 -9 -8 -163 139 -232 222
-77 93 -108 141 -98 157 10 16 25 11 53 -17z m699 -176 c58 -43 173 -164 251
-263 136 -173 232 -473 232 -722 0 -62 0 -63 -35 -78 -19 -7 -39 -14 -45 -14
-6 0 -10 26 -10 63 0 119 -71 367 -155 542 -99 204 -234 381 -348 453 l-48 30
43 15 c24 8 46 15 49 16 4 0 33 -18 66 -42z m-166 -61 c162 -134 274 -315 374
-606 47 -139 70 -248 78 -381 l5 -76 -38 -12 c-53 -16 -60 -14 -60 13 0 42
-48 211 -90 318 -86 215 -203 401 -402 635 -43 51 -78 95 -78 99 0 10 30 33
65 49 53 25 77 18 146 -39z m-3126 -572 c89 -6 92 -7 236 -85 214 -116 423
-209 652 -293 39 -15 47 -22 47 -44 0 -14 -8 -34 -17 -44 -9 -10 -19 -36 -22
-57 l-6 -39 -175 72 c-458 190 -709 326 -854 464 -31 29 -56 54 -56 56 0 2 24
-3 53 -11 28 -7 93 -16 142 -19z m1005 -556 c0 -27 -2 -48 -4 -48 -1 0 -17 5
-35 11 -29 10 -31 14 -31 58 l0 48 35 -11 c34 -10 35 -13 35 -58z m3525 -3046
c186 -159 278 -313 306 -514 9 -65 9 -90 -1 -113 -15 -37 -15 -37 -60 124 -47
170 -73 217 -242 429 -132 166 -133 185 -3 74z m-3755 -710 c-63 -127 -83
-294 -56 -482 20 -141 34 -206 53 -244 12 -23 12 -27 1 -24 -20 7 -62 75 -94
153 -27 66 -29 78 -28 210 0 119 3 150 23 205 33 95 110 252 121 245 4 -3 -4
-31 -20 -63z m-71 -1134 c-18 -34 -120 -186 -160 -238 -19 -25 -43 -64 -53
-88 -35 -77 -36 -43 -1 39 44 104 105 211 163 285 37 47 46 54 54 41 6 -11 5
-25 -3 -39z m4665 -199 c69 -137 83 -193 67 -285 -13 -75 -45 -156 -68 -175
-12 -11 -13 -8 -6 17 4 16 8 94 8 174 -1 132 -3 152 -29 225 -15 44 -45 118
-67 164 -21 46 -39 86 -39 90 0 18 88 -119 134 -210z m-519 120 c-10 -45 -60
-162 -97 -228 -127 -225 -328 -428 -453 -457 -29 -6 -29 -6 10 23 48 36 175
165 242 248 63 76 131 179 218 328 70 118 92 143 80 86z m-3606 -343 c157 -90
206 -109 292 -114 116 -7 256 44 351 127 25 23 49 41 53 41 18 0 -74 -146
-124 -198 -78 -79 -134 -106 -236 -110 -96 -5 -168 16 -277 81 -89 52 -228
184 -228 217 0 20 3 22 36 17 20 -3 80 -31 133 -61z m-775 -103 c-52 -74 -90
-118 -59 -68 50 80 89 135 97 135 5 0 -12 -30 -38 -67z m-106 -152 c-7 -12
-16 -21 -21 -21 -8 0 -2 14 16 38 16 20 20 6 5 -17z m-69 -96 c-18 -25 -35
-45 -38 -45 -3 0 -17 -3 -31 -6 -20 -5 -14 4 30 44 30 28 59 51 63 52 5 0 -6
-20 -24 -45z m884 -23 c19 -20 24 -31 16 -39 -15 -15 -7 -64 13 -77 13 -8 23
-7 40 3 20 12 27 7 117 -86 102 -105 174 -165 260 -212 l52 -28 -56 -23 c-37
-15 -67 -36 -87 -61 -17 -22 -34 -39 -38 -39 -4 0 -58 43 -121 95 -63 52 -119
95 -125 95 -6 0 -19 -9 -30 -21 -18 -20 -18 -21 4 -62 25 -47 96 -126 157
-175 l40 -32 -32 -31 -31 -32 -35 29 c-18 16 -66 57 -106 92 -85 74 -114 79
-119 22 -2 -30 5 -45 52 -102 30 -36 69 -74 86 -84 16 -10 30 -22 30 -25 0
-13 -60 -51 -73 -46 -7 3 -46 30 -87 61 l-74 57 -18 -23 c-28 -37 -21 -59 37
-115 l54 -53 -74 -35 c-150 -71 -352 -115 -524 -115 -233 1 -321 32 -442 157
-69 71 -138 168 -127 178 2 2 26 -2 53 -10 124 -38 422 1 541 71 112 64 234
194 293 312 17 34 36 62 41 62 34 0 190 158 190 192 0 6 9 8 21 5 16 -4 20 -1
18 16 -6 52 22 82 49 55 16 -16 17 5 2 33 -15 28 2 23 33 -9z m-971 -71 c22
12 23 1 2 -26 -13 -18 -125 -50 -123 -36 0 3 19 21 41 39 27 22 45 29 51 23 7
-7 16 -7 29 0z m-95 -102 c135 24 519 -33 680 -101 l32 -14 -50 -74 c-60 -89
-175 -209 -242 -252 -65 -42 -173 -74 -296 -88 -116 -14 -285 -9 -316 8 -60
34 -180 77 -267 96 -54 11 -98 23 -98 27 0 3 13 26 29 51 33 52 135 132 255
199 43 24 111 71 150 105 49 42 73 57 78 49 5 -8 20 -10 45 -6z m2148 -328
c22 -108 20 -124 -20 -160 -83 -73 -169 -95 -306 -80 -107 13 -235 7 -270 -12
-13 -6 -55 -38 -94 -69 -102 -83 -350 -266 -425 -316 -124 -80 -178 -102 -320
-128 -183 -33 -318 -41 -475 -26 -411 38 -754 157 -904 313 l-34 36 5 86 c6
93 18 118 92 199 32 36 38 38 76 33 23 -3 82 -17 133 -32 51 -15 108 -31 127
-37 31 -9 40 -19 72 -88 53 -111 164 -227 264 -276 71 -35 80 -37 226 -46 416
-26 754 105 1052 407 39 40 85 95 101 123 32 55 47 64 143 85 56 13 69 13 110
-1 32 -11 89 -16 182 -16 146 -1 170 5 219 58 14 14 26 25 27 23 2 -2 10 -36
19 -76z m2464 -16 c195 -47 351 -125 447 -223 48 -48 93 -112 80 -112 -2 0
-77 39 -165 86 -243 129 -359 171 -590 215 -68 14 -120 28 -118 34 2 5 23 16
48 22 58 16 174 8 298 -22z m-5194 -32 c-13 -37 -53 -88 -63 -78 -5 4 64 115
72 115 2 0 -2 -17 -9 -37z m4379 -335 c-16 -106 -20 -122 -31 -125 -7 -3 -13
22 -18 68 -6 64 -5 74 11 86 34 25 45 17 38 -29z m-94 -12 c0 -7 -9 -16 -20
-19 -25 -6 -26 8 -2 22 22 13 22 13 22 -3z m-93 -68 c-2 -64 27 -91 69 -63 24
15 24 15 24 -15 0 -17 -4 -29 -9 -26 -5 4 -23 -8 -40 -25 -34 -33 -40 -73 -18
-103 11 -15 10 -25 -10 -64 -36 -71 -25 -142 23 -142 40 0 77 87 55 129 -18
32 -41 15 -41 -29 0 -22 -4 -42 -10 -45 -6 -4 -10 6 -10 22 0 32 44 133 58
133 5 0 12 -23 16 -50 18 -133 34 -91 35 88 1 98 4 132 14 132 9 0 11 -25 9
-100 -2 -55 1 -107 6 -117 7 -11 7 -24 1 -35 -6 -10 -5 -19 1 -23 17 -11 11
-25 -15 -35 -14 -5 -25 -14 -25 -20 0 -8 36 -8 118 -3 174 12 553 8 662 -6 52
-7 150 -18 216 -26 67 -7 131 -19 143 -27 39 -24 78 23 59 72 -6 15 -12 20
-15 12 -3 -8 -11 -4 -25 13 -11 14 -33 32 -48 40 l-29 15 25 91 c13 50 24 93
24 97 0 4 6 -4 13 -17 20 -39 41 -47 72 -27 15 10 30 27 32 37 3 10 8 19 11
19 3 0 31 -17 63 -37 l58 -38 -5 -50 c-9 -88 -12 -95 -40 -95 -14 0 -39 -9
-56 -21 -28 -21 -29 -22 -11 -41 17 -19 45 -21 86 -3 13 6 17 2 17 -16 -1 -18
-11 -29 -43 -44 -36 -17 -42 -25 -44 -52 -1 -28 2 -33 20 -33 12 1 33 7 47 15
35 20 40 19 40 -14 0 -23 -6 -30 -26 -35 -36 -9 -81 -55 -64 -66 7 -4 9 -13 6
-19 -10 -16 47 -14 62 1 34 34 37 -77 5 -192 -41 -149 -126 -219 -311 -255
-144 -29 -196 -20 -315 52 l-60 36 94 32 c219 72 354 212 352 365 0 71 -25
145 -45 137 -7 -2 -11 -11 -9 -18 11 -41 12 -160 2 -192 -15 -43 -84 -123
-149 -170 -51 -38 -199 -122 -233 -132 -26 -9 -64 25 -79 70 -10 31 -14 33
-73 38 -34 4 -141 7 -237 8 -167 1 -175 0 -189 -20 l-14 -21 -46 26 c-143 82
-179 181 -126 341 14 42 23 78 21 81 -19 18 -65 -84 -82 -180 -9 -52 12 -128
47 -176 33 -45 112 -102 141 -102 10 0 18 -3 18 -7 -1 -15 -108 -93 -155 -114
-112 -49 -285 13 -356 127 -19 31 -21 45 -16 114 4 62 13 97 47 174 23 53 44
96 46 96 3 0 23 -9 46 -21 51 -26 86 -20 86 17 0 21 -11 33 -49 57 -46 28 -48
31 -35 51 9 13 23 20 37 18 68 -8 99 4 99 40 0 12 -12 24 -35 34 -39 16 -48
37 -12 29 25 -6 39 2 54 29 14 26 6 51 -23 66 -28 15 -30 28 -9 56 20 26 19
34 -5 34 -18 0 -18 1 -2 38 29 64 71 112 69 80z m53 -8 c0 -11 -4 -20 -10 -20
-5 0 -10 9 -10 20 0 11 5 20 10 20 6 0 10 -9 10 -20z m1200 -18 c0 -8 -1 -13
-3 -11 -1 2 -9 12 -16 22 -12 15 -12 17 3 11 9 -3 16 -13 16 -22z m-10 -29
c-1 -5 -7 -19 -15 -33 l-14 -25 -1 33 c0 22 5 32 15 32 8 0 15 -3 15 -7z m87
-33 c-1 -16 -5 -30 -9 -30 -10 0 -10 22 -2 44 9 24 13 19 11 -14z m-1270 -102
c-3 -7 -5 -2 -5 12 0 14 2 19 5 13 2 -7 2 -19 0 -25z m1598 -112 c52 -69 67
-161 43 -268 l-12 -53 -8 85 c-15 158 -19 190 -28 190 -19 0 -24 -49 -31 -315
-8 -313 -18 -395 -60 -507 -30 -78 -94 -169 -132 -190 -28 -15 -465 -94 -603
-109 -139 -15 -318 -7 -459 21 -132 26 -389 110 -488 159 l-72 36 -52 105
c-28 58 -55 120 -59 139 l-6 35 41 -35 c22 -20 67 -49 98 -65 50 -24 70 -29
138 -29 105 0 156 25 256 125 l75 75 90 -6 c49 -4 142 -7 206 -8 l118 -1 19
-39 c49 -96 219 -201 326 -201 88 0 222 28 291 61 166 78 241 244 216 479 -16
150 -26 354 -18 385 l7 26 40 -32 c22 -17 51 -46 64 -63z m-367 -91 c-2 -3
-32 1 -66 7 -59 11 -61 12 -46 29 16 17 19 17 66 -7 28 -14 48 -27 46 -29z"/>
<path d="M9215 17356 c-22 -7 -59 -23 -82 -37 -79 -45 -59 -52 151 -54 138 -2
187 -6 253 -23 121 -32 200 -60 244 -87 47 -31 85 -34 70 -7 -5 10 -22 24 -38
32 -15 8 -61 36 -102 63 -85 57 -161 94 -234 113 -64 17 -208 17 -262 0z"/>
<path d="M8184 17009 c-4 -7 -3 -14 3 -16 6 -2 19 -11 29 -19 19 -15 18 -15
-1 -9 -11 4 -46 9 -77 12 -70 7 -118 -10 -118 -40 0 -16 3 -18 12 -9 17 17 66
15 114 -5 l41 -17 -24 -34 c-35 -53 -55 -127 -60 -229 -6 -104 16 -200 62
-268 20 -28 22 -36 10 -31 -9 3 -29 9 -43 13 -25 6 -26 5 -12 -12 24 -30 100
-58 158 -59 40 0 49 -3 34 -9 -25 -11 -45 -79 -37 -126 9 -52 58 -135 99 -166
19 -14 51 -29 73 -32 l38 -5 -66 68 c-80 82 -101 121 -103 188 -1 48 0 50 31
57 38 7 96 49 119 85 26 39 37 218 22 342 -6 46 -5 52 8 41 12 -10 13 -9 8 7
-12 31 -60 98 -114 157 -79 86 -186 147 -206 116z m102 -157 c32 -21 65 -46
73 -55 12 -15 9 -19 -30 -37 -61 -27 -112 -26 -144 4 -25 24 -26 25 -10 62 17
40 33 64 45 64 4 0 33 -17 66 -38z m-37 -166 c13 -16 5 -46 -13 -46 -23 0 -36
22 -25 42 12 22 22 23 38 4z m5 -81 c3 -9 -1 -18 -10 -22 -19 -7 -28 2 -21 22
8 19 23 19 31 0z m111 -187 c38 0 44 -2 35 -13 -27 -33 -82 -25 -127 17 -38
35 -28 53 12 23 25 -20 46 -27 80 -27z"/>
<path d="M9325 16990 c-11 -5 -48 -9 -83 -9 -70 -1 -75 -14 -10 -27 l43 -8
-35 -4 -35 -5 40 -13 40 -12 -72 -1 c-76 -1 -123 -13 -123 -32 0 -8 16 -10 55
-5 48 5 192 -8 203 -19 2 -2 -6 -30 -18 -62 -57 -149 -25 -370 72 -493 l20
-25 -31 -5 c-18 -3 -33 -9 -34 -15 -3 -15 149 -18 213 -5 54 12 130 54 130 72
0 5 -4 6 -10 3 -18 -11 -11 7 16 43 40 52 65 128 71 214 5 73 7 77 25 67 26
-14 48 15 43 55 -5 36 -30 63 -129 138 -96 72 -195 123 -278 143 -71 17 -85
17 -113 5z m141 -164 c84 -29 124 -47 124 -56 0 -12 -123 -69 -162 -76 -52 -9
-88 2 -88 26 0 25 39 130 49 130 4 0 39 -11 77 -24z m-13 -172 c11 -11 -5 -34
-23 -34 -22 0 -34 15 -25 30 7 11 38 14 48 4z m10 -69 c8 -18 -11 -31 -25 -17
-11 11 -3 32 12 32 4 0 10 -7 13 -15z m7 -135 c23 -42 77 -56 134 -34 9 3 16
1 16 -5 0 -19 -65 -44 -95 -37 -31 8 -85 60 -85 82 0 21 18 17 30 -6z"/>
<path d="M10983 16599 c-49 -14 -139 -79 -184 -134 -23 -28 -57 -82 -76 -122
-54 -112 -57 -187 -8 -219 33 -21 53 -8 26 17 -41 38 -16 143 58 249 44 64 72
71 104 28 16 -21 21 -42 20 -91 -1 -100 -32 -156 -123 -219 l-25 -17 37 0 c46
-1 103 45 129 104 51 118 22 262 -56 277 -17 3 -13 9 23 33 l44 29 44 -23 c59
-32 86 -78 94 -160 l6 -66 17 37 c24 53 21 99 -9 143 -29 43 -63 74 -81 75 -7
0 -13 5 -13 10 0 13 75 13 119 0 19 -5 50 -24 68 -42 37 -36 48 -33 38 11 -15
70 -145 111 -252 80z"/>
<path d="M8476 15733 c-22 -22 18 -71 41 -51 9 7 10 16 3 28 -10 19 -35 32
-44 23z"/>
<path d="M9420 15701 c-37 -54 -102 -66 -335 -65 -181 0 -313 12 -469 41 -53
10 -17 -13 56 -36 167 -51 506 -73 646 -42 86 19 167 68 167 101 0 38 -37 39
-65 1z"/>
<path d="M8616 15422 c-7 -12 39 -54 94 -85 118 -67 288 -90 344 -46 14 11 26
24 26 29 0 5 -37 6 -82 3 -101 -6 -177 11 -289 68 -86 43 -86 43 -93 31z"/>
<path d="M9220 14052 c0 -4 16 -30 36 -57 20 -28 42 -63 50 -80 13 -29 13 -29
13 -5 1 29 -33 106 -56 132 -16 18 -43 24 -43 10z"/>
<path d="M9170 13217 c-30 -49 -23 -87 16 -87 8 0 34 68 34 89 0 34 -29 33
-50 -2z m11 -50 c-13 -13 -15 1 -4 30 7 17 8 17 11 -1 2 -10 -1 -23 -7 -29z"/>
<path d="M9884 13092 c-22 -14 -34 -52 -27 -79 4 -16 6 -33 5 -39 -2 -12 597
-163 648 -164 22 0 60 61 60 96 0 35 -8 47 -37 63 -48 25 -101 -33 -91 -99 5
-30 4 -31 -26 -24 -40 8 -41 9 -22 36 20 29 21 92 0 112 -8 9 -31 16 -49 16
-29 0 -37 -6 -51 -32 -10 -19 -14 -44 -11 -65 l6 -34 -37 7 c-52 9 -54 11 -26
39 29 29 31 68 4 95 -27 27 -46 25 -76 -6 -26 -25 -27 -39 -8 -89 6 -14 3 -16
-12 -11 -10 3 -56 14 -101 25 -102 24 -110 29 -84 48 24 16 29 81 9 101 -13
13 -57 16 -74 4z"/>
<path d="M10022 13038 c-28 -28 -3 -93 33 -87 28 6 53 54 39 76 -14 22 -55 28
-72 11z"/>
<path d="M10940 12520 c-31 -43 -236 -467 -310 -640 -34 -80 -69 -160 -76
-177 -8 -18 -12 -33 -10 -33 7 0 159 256 199 337 63 125 237 513 237 528 0 24
-17 17 -40 -15z"/>
<path d="M10020 12249 c-53 -22 -392 -122 -520 -154 -151 -38 -385 -83 -595
-115 -234 -35 -386 -62 -416 -72 -34 -12 -39 -31 -6 -23 12 2 114 16 227 30
113 14 216 28 228 31 23 5 23 3 -10 -43 -36 -52 -249 -270 -363 -373 l-70 -62
50 26 c129 69 318 248 405 384 25 40 54 74 65 76 11 3 88 17 170 32 182 32
397 84 525 126 103 34 319 123 335 139 11 11 7 11 -25 -2z"/>
<path d="M7820 11094 c0 -5 46 -26 103 -48 56 -21 160 -65 230 -98 124 -59
152 -65 131 -30 -33 54 -465 218 -464 176z"/>
<path d="M10855 10961 c-22 -10 -136 -55 -252 -100 -350 -135 -566 -179 -910
-188 -273 -8 -530 11 -893 63 -29 4 -32 3 -17 -6 32 -21 211 -60 362 -81 192
-26 613 -37 776 -20 251 26 533 103 719 195 122 61 283 158 258 156 -2 0 -21
-9 -43 -19z"/>
<path d="M7607 10596 c4 -7 115 -131 246 -275 215 -235 351 -370 364 -358 16
17 -353 429 -509 568 -82 74 -120 98 -101 65z"/>
<path d="M9320 9954 c-259 -22 -423 -46 -448 -66 -8 -7 -9 -14 -2 -23 8 -9 29
-9 97 1 130 20 337 33 616 40 136 3 247 9 247 13 0 22 -365 47 -510 35z"/>
<path d="M9000 9809 c0 -14 347 -182 443 -213 172 -56 340 -70 427 -34 35 15
34 15 -65 22 -217 16 -364 56 -619 170 -145 65 -186 77 -186 55z"/>
<path d="M8966 9712 c-7 -12 19 -119 34 -137 24 -29 33 -16 27 41 -7 72 -42
126 -61 96z"/>
<path d="M8320 9666 c0 -7 6 -19 14 -25 11 -9 15 -8 20 5 3 9 4 20 0 25 -8 14
-34 11 -34 -5z"/>
<path d="M9144 9633 c2 -10 7 -29 11 -43 9 -35 27 -70 36 -70 18 0 20 45 4 86
-12 32 -22 44 -37 44 -14 0 -18 -5 -14 -17z"/>
<path d="M9344 9546 c-7 -20 2 -46 16 -46 13 0 13 47 0 55 -6 3 -13 -1 -16 -9z"/>
<path d="M8921 3286 c-12 -13 -24 -39 -28 -59 -4 -29 -2 -37 16 -46 44 -24 94
36 69 82 -7 12 -11 28 -10 35 5 20 -23 14 -47 -12z m16 -58 c-3 -8 -6 -5 -6 6
-1 11 2 17 5 13 3 -3 4 -12 1 -19z"/>
<path d="M12839 2250 c-6 -16 -15 -30 -20 -30 -5 0 -16 -11 -24 -24 -13 -19
-14 -29 -5 -45 24 -45 80 -12 98 59 16 65 -28 101 -49 40z"/>
</g>
</svg>
